<svg width="69" height="69" fill="none" xmlns="http://www.w3.org/2000/svg"><g clip-path="url(#a)" stroke="#81664B" stroke-width="2" stroke-miterlimit="10"><path d="M52.9 24.15v39.1c0 .636-.514 1.15-1.15 1.15h-34.5c-.636 0-1.15-.514-1.15-1.15v-39.1M16.1 59.8h24.15M42.55 59.8h2.3M47.15 59.8h5.75M4.507 29.957 16.1 34.782M44.74 5.997S42.55 14.95 34.5 14.95 24.26 5.997 24.26 5.997"/><path d="m52.9 39.762 11.323-4.71a2.154 2.154 0 0 0 1.207-2.698c-.855-2.422-6.367-16.893-18.875-25.493a6.238 6.238 0 0 0-3.531-1.111H25.975a6.238 6.238 0 0 0-3.532 1.11C9.936 15.46 4.424 29.932 3.57 32.355a2.155 2.155 0 0 0 1.208 2.698l11.322 4.71M64.493 29.957 52.9 34.782M13.472.802l2.427 5.065M5.106 7.48l3.874 4.372M-.802 17.43l5.004 1.16"/></g><defs><clipPath id="a"><path fill="#fff" d="M0 0h69v69H0z"/></clipPath></defs></svg>