<svg width="68" height="69" fill="none" xmlns="http://www.w3.org/2000/svg"><path d="m14.617 50.32 21.65-12.37c-.709 4.6-9.209 12.65-15.867 12.65h-5.715" stroke="#81664B" stroke-width="2" stroke-miterlimit="10"/><path d="M20.4 47.014c0-8.337.898-12.514 4.534-15.964v13.386M24.933 49.565V57.5M20.4 50.6c0 1.907 1.587 5.574 4.28 6.913" stroke="#81664B" stroke-width="2" stroke-miterlimit="10"/><path d="M24.933 66.7c1.878 0 3.4-2.06 3.4-4.6 0-2.54-1.522-4.6-3.4-4.6-1.877 0-3.4 2.06-3.4 4.6 0 2.54 1.523 4.6 3.4 4.6ZM8.754 49.083c-1.578.925-3.087 2.523-3.087 4.344 0 .518.094 1.002.35 1.452.53.932 1.718 1.47 3.05 1.47 1.267 0 2.143-.23 3.087-.782 1.575-.924 2.58-2.933 2.58-4.32 0-.594-.097-1.025-.354-1.477-.573-1.007-1.567-1.47-3.047-1.47-.837 0-1.734.287-2.58.783ZM37.4 5.75c0 3.179-5.1 5.75-11.333 5.75M41.34 15.321c-2.55 3.81-6.017 6.529-16.553 6.529M44.2 43.7c0-2.78 5.084-5.75 11.318-5.75M45.21 29.63c.115-.578.241-1.125.377-1.64" stroke="#81664B" stroke-width="2" stroke-miterlimit="10"/><path d="M44.628 33.649c-.29 2.843-.428 6.209-.428 10.051 0 .676.467 1.15 1.133 1.15 4.463 0 10.2-2.085 10.2-5.75 0-5.078-.888-14.413-3.344-16.678l-.001-.002c-.994-1.08-4.102-2.453-6.855-4.02-3.872-2.205-7.933-6.35-7.933-12.65 0-.627-.621-1.15-1.133-1.15-6.392 0-10.2 2.3-10.2 6.9 0 10.35-1.235 11.15-4.534 13.8-3.4 2.731-5.666 6.037-5.666 11.5" stroke="#81664B" stroke-width="2" stroke-miterlimit="10"/><path d="M46.822 24.721c1.032-1.898 2.406-2.871 4.178-2.871.43 0 .825.203 1.189.572M48.733 44.491V62.1" stroke="#81664B" stroke-width="2" stroke-miterlimit="10"/></svg>