<svg width="69" height="69" fill="none" xmlns="http://www.w3.org/2000/svg"><path d="M33.35 29.9v32.2M33.35 25.3v2.3M33.35 12.65V23M24.15 35.65h18.4M33.35 8.05a3.45 3.45 0 1 0 0-6.9 3.45 3.45 0 0 0 0 6.9ZM31.05 7.17v5.48M21.85 62.1H20.7c-3.175 0-5.75-2.97-5.75-8.05s2.818-7.417 5.75-10.35c2.3-2.3 3.45-3.604 3.45-8.05 0-4.053-1.587-4.931-6.625-8.23-.93-.609-1.741-1.436-2.17-2.463-1.399-3.347 1.023-6.557 4.195-6.557 6.038 0 7.925-3.45 7.925-4.852 0-.533.567-.898 1.1-.898h9.551c.534 0 1.1.365 1.1.898 0 1.402 1.887 4.852 7.924 4.852 3.172 0 5.594 3.21 4.194 6.559-.429 1.025-1.24 1.853-2.17 2.463-5.037 3.297-6.624 4.175-6.624 8.228 0 4.125.99 5.545 2.97 7.566M26.445 62.1H24.15M47.603 45.292c.855.863 1.651 1.728 2.313 2.69M35.65 7.17v5.48M51.323 50.896c.273.93.427 1.967.427 3.154 0 5.08-2.575 8.05-5.75 8.05H29.9V69M36.8 62.1V69" stroke="#81664B" stroke-width="2" stroke-miterlimit="10"/></svg>