<svg width="68" height="69" fill="none" xmlns="http://www.w3.org/2000/svg"><path d="m29.963 27.098 6.977-7.081m2.083-2.115 1.286-1.304M32.3 45.425l-9.748 9.891a11.138 11.138 0 0 1-7.933 3.334c-6.196 0-11.22-5.098-11.22-11.384a11.47 11.47 0 0 1 3.286-8.05l9.748-9.89" stroke="#81664B" stroke-width="2" stroke-miterlimit="10"/><path d="M8.758 50.133a7.384 7.384 0 0 1-.825-3.402 7.37 7.37 0 0 1 2.113-5.175l4.174-4.235M12.285 53.45a7.213 7.213 0 0 1-1.828-1.157m23.142-5.55c.534.543 1.4.543 1.934 0l2.6-2.636a1.405 1.405 0 0 0 0-1.964L19.667 23.407a1.355 1.355 0 0 0-1.935 0l-2.599 2.637a1.403 1.403 0 0 0 0 1.963L33.6 46.743Z" stroke="#81664B" stroke-width="2" stroke-miterlimit="10"/><path d="m34 37.95 13.073-13.265a5.794 5.794 0 0 0 1.66-4.067v-2.416c0-.61.24-1.195.664-1.626l2.931-2.974c.6-.61.938-1.436.938-2.3 0-1.795-1.435-3.252-3.205-3.252-.85 0-1.666.343-2.266.952l-2.931 2.974a2.25 2.25 0 0 1-1.603.674H40.88a5.624 5.624 0 0 0-4.006 1.685L23.8 27.6" stroke="#81664B" stroke-width="2" stroke-miterlimit="10"/><path d="M53.267 11.302V13.8c0 2.947-1.134 2.731-1.134 5.175C52.133 21.199 53.91 23 56.1 23c2.192 0 3.967-1.8 3.967-4.025 0-6.805-6.8-7.673-6.8-7.673ZM55.533 50.6c0 3.176-2.536 5.75-5.666 5.75-3.13 0-5.667-2.574-5.667-5.75 0-4.6 5.667-10.35 5.667-10.35S55.533 46 55.533 50.6Z" stroke="#81664B" stroke-width="2" stroke-miterlimit="10"/><path d="M49.867 51.75c.625 0 1.133-.515 1.133-1.15 0-.935-.817-2.537-1.913-4.123" stroke="#81664B" stroke-width="2" stroke-miterlimit="10"/><path d="M40.179 38.615c2.467-2.54 5.895-4.115 9.688-4.115.315 0 .629.011.938.032l3.909-4.278c.204-.22.497-.354.82-.354a1.14 1.14 0 0 1 1.133 1.15v5.296a13.834 13.834 0 0 1 6.8 11.954c0 7.621-6.09 13.8-13.6 13.8-6.685 0-12.243-4.893-13.386-11.341" stroke="#81664B" stroke-width="2" stroke-miterlimit="10"/></svg>