<svg width="28" height="20" fill="none" xmlns="http://www.w3.org/2000/svg"><path d="M12.813 2.408c-1.45.768-2.667 1.92-3.648 3.456-.939 1.536-1.408 2.944-1.408 4.224l3.264 4.288c0 .939-.277 1.835-.832 2.688a6.104 6.104 0 0 1-2.24 2.048 5.71 5.71 0 0 1-2.88.768c-1.536 0-2.752-.512-3.648-1.536C.525 17.277.077 16.019.077 14.568c0-2.219.49-4.245 1.472-6.08.981-1.877 2.368-3.499 4.16-4.864C7.501 2.259 9.613 1.171 12.045.36l.768 2.048Zm14.464 0c-1.45.768-2.667 1.92-3.648 3.456-.939 1.536-1.408 2.944-1.408 4.224l3.264 4.288c0 .939-.277 1.835-.832 2.688a6.104 6.104 0 0 1-2.24 2.048 5.71 5.71 0 0 1-2.88.768c-1.536 0-2.752-.512-3.648-1.536-.896-1.067-1.344-2.325-1.344-3.776 0-2.219.49-4.245 1.472-6.08.981-1.877 2.368-3.499 4.16-4.864 1.792-1.365 3.904-2.453 6.336-3.264l.768 2.048Z" fill="#7DB5A9"/></svg>