<?xml version="1.0" encoding="UTF-8"?><svg xmlns="http://www.w3.org/2000/svg" viewBox="0 0 239.96 252.35"><defs><style>.d{fill:#f1ede7;}</style></defs><g id="a"/><g id="b"><g id="c"><g><g><path class="d" d="M71.35,135.25c-.09-.12-.42-.36-.98-.7-.56-.34-1.25-.7-2.09-1.07s-1.75-.7-2.74-.98c-.99-.28-1.98-.42-2.97-.42-2.72,0-4.09,.91-4.09,2.74,0,.56,.15,1.02,.44,1.39,.29,.37,.73,.7,1.3,1,.57,.29,1.29,.57,2.16,.81s1.87,.53,3.02,.84c1.58,.43,3,.91,4.27,1.42,1.27,.51,2.34,1.15,3.23,1.9,.88,.76,1.56,1.68,2.04,2.76,.48,1.08,.72,2.38,.72,3.9,0,1.86-.35,3.43-1.05,4.71-.7,1.28-1.62,2.32-2.76,3.11s-2.46,1.36-3.95,1.72c-1.49,.35-3.02,.53-4.6,.53-1.21,0-2.45-.09-3.71-.28-1.27-.19-2.51-.46-3.71-.81-1.21-.35-2.37-.78-3.5-1.28-1.13-.49-2.18-1.07-3.13-1.72l3.34-6.64c.12,.15,.53,.45,1.21,.88s1.52,.87,2.53,1.3c1,.43,2.13,.82,3.36,1.16,1.24,.34,2.49,.51,3.76,.51,2.69,0,4.04-.82,4.04-2.46,0-.62-.2-1.13-.6-1.53-.4-.4-.96-.77-1.67-1.09s-1.56-.63-2.53-.91c-.98-.28-2.04-.59-3.18-.93-1.52-.46-2.83-.97-3.95-1.51-1.11-.54-2.04-1.17-2.76-1.88-.73-.71-1.27-1.53-1.63-2.46-.36-.93-.53-2.01-.53-3.25,0-1.73,.32-3.26,.98-4.6,.65-1.33,1.53-2.45,2.65-3.37s2.41-1.6,3.88-2.07c1.47-.46,3.02-.7,4.67-.7,1.14,0,2.27,.11,3.39,.32,1.11,.22,2.18,.5,3.2,.84,1.02,.34,1.97,.73,2.86,1.16,.88,.43,1.69,.87,2.44,1.3l-3.34,6.31Z"/><path class="d" d="M105.01,132.28h-10.03v26.28h-7.61v-26.28h-10.08v-6.69h27.72v6.69Z"/><path class="d" d="M114.43,125.6h6.87l12.02,32.96h-7.8l-2.55-7.38h-10.26l-2.51,7.38h-7.8l12.03-32.96Zm7.29,20.33l-3.85-11.65-3.95,11.65h7.8Z"/><path class="d" d="M136.58,158.56v-32.96h14.86c1.55,0,2.98,.33,4.29,.98s2.45,1.5,3.41,2.55c.96,1.05,1.71,2.24,2.25,3.57,.54,1.33,.81,2.68,.81,4.04,0,1.02-.12,2-.37,2.95-.25,.94-.6,1.83-1.07,2.67-.46,.84-1.03,1.59-1.69,2.25-.67,.67-1.42,1.23-2.25,1.7l7.24,12.26h-8.59l-6.31-10.63h-4.97v10.63h-7.61Zm7.61-17.27h6.97c.9,0,1.67-.42,2.32-1.28,.65-.85,.98-1.94,.98-3.27s-.37-2.44-1.12-3.25c-.74-.8-1.55-1.21-2.41-1.21h-6.73v9.01Z"/><path class="d" d="M192.29,132.28h-10.03v26.28h-7.61v-26.28h-10.08v-6.69h27.72v6.69Z"/><path class="d" d="M57.58,167.17l7.5,15.97,7.59-15.97h8.77l-12.39,22.93v11.86h-7.99v-11.95l-12.2-22.83h8.72Z"/><path class="d" d="M99.38,202.25c-2.58,0-4.93-.51-7.06-1.52-2.12-1.01-3.94-2.34-5.44-3.99-1.5-1.65-2.67-3.54-3.5-5.66-.83-2.12-1.25-4.31-1.25-6.57s.43-4.49,1.3-6.61c.86-2.12,2.07-3.99,3.63-5.61,1.55-1.62,3.39-2.91,5.51-3.87s4.44-1.45,6.96-1.45,4.93,.51,7.06,1.52c2.12,1.01,3.94,2.35,5.44,4.02s2.66,3.56,3.48,5.68c.82,2.12,1.23,4.28,1.23,6.47s-.43,4.49-1.3,6.61c-.86,2.12-2.06,3.99-3.6,5.61s-3.36,2.91-5.49,3.89-4.44,1.47-6.96,1.47Zm-9.06-17.64c0,1.34,.2,2.64,.59,3.89,.39,1.26,.97,2.38,1.74,3.36,.77,.98,1.72,1.76,2.87,2.35s2.45,.88,3.92,.88,2.87-.31,4.02-.93,2.09-1.43,2.84-2.43c.75-1,1.31-2.12,1.69-3.38,.37-1.26,.56-2.54,.56-3.85s-.2-2.64-.59-3.89c-.39-1.26-.98-2.37-1.76-3.33-.79-.96-1.74-1.73-2.87-2.3-1.13-.57-2.43-.86-3.9-.86s-2.87,.3-3.99,.91c-1.13,.6-2.07,1.4-2.84,2.38-.77,.98-1.34,2.1-1.72,3.36-.37,1.26-.56,2.54-.56,3.85Z"/><path class="d" d="M138.13,195.1c1.37,0,2.53-.29,3.48-.86,.95-.57,1.71-1.33,2.3-2.28s1-2.03,1.25-3.26,.37-2.47,.37-3.75v-17.79h8.04v17.79c0,2.42-.3,4.67-.91,6.76-.6,2.09-1.54,3.92-2.79,5.49s-2.86,2.8-4.8,3.7c-1.94,.9-4.25,1.35-6.93,1.35s-5.14-.47-7.11-1.42c-1.96-.95-3.55-2.21-4.78-3.8-1.22-1.58-2.12-3.42-2.69-5.51-.57-2.09-.86-4.28-.86-6.56v-17.79h8.04v17.79c0,1.34,.13,2.61,.39,3.82,.26,1.21,.69,2.29,1.27,3.23,.59,.95,1.35,1.7,2.28,2.25,.93,.56,2.08,.83,3.45,.83Z"/><path class="d" d="M161.6,201.96v-34.79h15.68c1.63,0,3.14,.34,4.53,1.03,1.39,.69,2.59,1.59,3.6,2.7,1.01,1.11,1.8,2.37,2.38,3.77,.57,1.4,.86,2.83,.86,4.26,0,1.08-.13,2.12-.39,3.11-.26,1-.64,1.94-1.13,2.82-.49,.88-1.09,1.67-1.79,2.38-.7,.7-1.5,1.3-2.38,1.79l7.64,12.93h-9.06l-6.66-11.22h-5.24v11.22h-8.04Zm8.04-18.23h7.35c.95,0,1.76-.45,2.45-1.35,.69-.9,1.03-2.05,1.03-3.45s-.39-2.58-1.18-3.43c-.78-.85-1.63-1.27-2.55-1.27h-7.1v9.51Z"/><path class="d" d="M50.99,252.35v-41.75h9.64v33.28h20.23v8.47h-29.87Z"/><path class="d" d="M90.09,252.35v-41.75h9.64v41.75h-9.64Z"/><path class="d" d="M122.07,228.48v23.87h-9.64v-41.75h7.53l19.46,24.52v-24.52h9.64v41.75h-7.76l-19.23-23.87Z"/><path class="d" d="M191.09,243.89v8.47h-29.34v-41.75h28.81v8.47h-19.17v8.11h16.46v7.82h-16.46v8.88h19.7Z"/></g><path class="d" d="M239.69,125.83c-1.34-8.3-6.7-12.8-13.83-16.22-30.05-14.4-60.03-28.96-90.03-43.48-2.89-1.4-5.7-2.95-8.36-4.33v-9.94c16.33-8.39,22.51-21.6,16.93-35.47C139.24,3.6,125.43-2.62,112.19,1.04c-10.27,2.84-18.67,13.07-17.16,25.36,1.66,.11,9.37,.04,11.47-.12,.71-2.16,1.11-3.99,1.9-5.64,2.77-5.79,9.47-8.75,15.19-6.85,6.13,2.03,9.65,7.07,9.25,13.24-.4,6.18-5.13,11.08-11.71,11.98-2.26,.31-4.56,.34-7.54,.55v22.01c-8.15,4.01-15.23,7.54-22.35,10.99-26.43,12.79-52.88,25.54-79.32,38.32-4.09,1.98-7.42,4.77-9.55,8.89-6.78,13.09,1.7,28.27,16.43,28.93,7.77,.35,15.56,.21,23.34,.2v-13c-6.57,0-13.04,0-19.49,0-.7,0-1.4,0-2.09-.09-3.19-.4-5.91-1.46-6.71-5.04-.78-3.49,.29-5.99,4.07-7.91,7.88-4.02,15.86-7.83,23.83-11.68,24.93-12.06,49.87-24.11,74.82-36.15,1.04-.5,2.13-.91,3.67-1.56,11.69,5.67,23.6,11.49,35.54,17.25,19.91,9.61,39.85,19.18,59.76,28.79,2.72,1.31,5.42,2.7,8.02,4.24,2.44,1.44,3.46,3.71,2.93,6.55-.52,2.83-2.39,4.43-5.02,5.24-.66,.2-1.38,.3-2.07,.3-7.18,.01-14.37,.01-21.57,.01v13.05c7.99,0,16,.18,23.97-.22,11.8-.6,19.77-11.17,17.89-22.82Z"/></g></g></g></svg>